<svg width="1600" height="270" viewBox="0 0 1600 270" fill="none" xmlns="http://www.w3.org/2000/svg">
<g clip-path="url(#clip0_86_2056)">
<rect width="1602" height="270" fill="#FAF4F4"/>
<rect x="1472" y="176" width="300" height="300" rx="150" fill="#404040"/>
<path d="M1470.31 266.077L1465.72 268.488L1466.6 263.38L1462.88 259.762L1468.01 259.017L1470.31 254.368L1472.6 259.017L1477.73 259.762L1474.02 263.38L1474.9 268.488L1470.31 266.077Z" fill="#94A3B8"/>
<path d="M1492.6 28.7319L1489 30.6267L1489.68 26.6128L1486.77 23.7703L1490.8 23.1846L1492.6 19.5322L1494.4 23.1846L1498.43 23.7703L1495.52 26.6128L1496.21 30.6267L1492.6 28.7319Z" fill="#94A3B8"/>
<g clip-path="url(#clip1_86_2056)">
<path d="M1494.98 213.516C1493.6 213.516 1492.48 212.397 1492.48 211.016C1492.48 209.636 1493.6 208.516 1494.98 208.516C1496.37 208.516 1497.48 209.636 1497.48 211.016C1497.48 212.397 1496.37 213.516 1494.98 213.516Z" fill="#94A3B8"/>
</g>
<path d="M1541.99 279.884C1538.77 279.884 1536.15 277.27 1536.15 274.045C1536.15 270.82 1538.77 268.206 1541.99 268.206C1545.22 268.206 1547.83 270.82 1547.83 274.045C1547.83 277.27 1545.22 279.884 1541.99 279.884Z" fill="#94A3B8"/>
<g clip-path="url(#clip2_86_2056)">
<path d="M1504.98 149.086C1503.81 149.086 1502.86 148.136 1502.86 146.963C1502.86 145.79 1503.81 144.84 1504.98 144.84C1506.15 144.84 1507.1 145.79 1507.1 146.963C1507.1 148.136 1506.15 149.086 1504.98 149.086Z" fill="#94A3B8"/>
</g>
<g clip-path="url(#clip3_86_2056)">
<path d="M1547.46 190.199C1545.41 190.199 1543.75 188.535 1543.75 186.483C1543.75 184.431 1545.41 182.767 1547.46 182.767C1549.51 182.767 1551.18 184.431 1551.18 186.483C1551.18 188.535 1549.51 190.199 1547.46 190.199Z" fill="#94A3B8"/>
</g>
<g clip-path="url(#clip4_86_2056)">
<path d="M1409.15 259.446C1407.39 259.446 1405.97 258.02 1405.97 256.261C1405.97 254.502 1407.39 253.076 1409.15 253.076C1410.91 253.076 1412.34 254.502 1412.34 256.261C1412.34 258.02 1410.91 259.446 1409.15 259.446Z" fill="#94A3B8"/>
</g>
<path d="M1564.65 129.078V125.096C1564.65 124.885 1564.57 124.683 1564.42 124.533C1564.27 124.384 1564.07 124.3 1563.86 124.3C1563.65 124.3 1563.44 124.384 1563.29 124.533C1563.14 124.683 1563.06 124.885 1563.06 125.096V129.078H1559.08C1558.87 129.078 1558.67 129.161 1558.52 129.311C1558.37 129.46 1558.28 129.663 1558.28 129.874C1558.28 130.085 1558.37 130.287 1558.52 130.437C1558.67 130.586 1558.87 130.67 1559.08 130.67H1563.06V134.651C1563.06 134.862 1563.14 135.065 1563.29 135.214C1563.44 135.364 1563.65 135.448 1563.86 135.448C1564.07 135.448 1564.27 135.364 1564.42 135.214C1564.57 135.065 1564.65 134.862 1564.65 134.651V130.67H1568.63C1568.85 130.67 1569.05 130.586 1569.2 130.437C1569.35 130.287 1569.43 130.085 1569.43 129.874C1569.43 129.663 1569.35 129.46 1569.2 129.311C1569.05 129.161 1568.85 129.078 1568.63 129.078H1564.65Z" fill="#94A3B8"/>
<path d="M1528.23 75.0757V72.9524C1528.23 72.8397 1528.19 72.7317 1528.11 72.6521C1528.03 72.5724 1527.92 72.5277 1527.81 72.5277C1527.69 72.5277 1527.59 72.5724 1527.51 72.6521C1527.43 72.7317 1527.38 72.8397 1527.38 72.9524V75.0757H1525.26C1525.15 75.0757 1525.04 75.1205 1524.96 75.2001C1524.88 75.2797 1524.83 75.3878 1524.83 75.5004C1524.83 75.613 1524.88 75.721 1524.96 75.8007C1525.04 75.8803 1525.15 75.9251 1525.26 75.9251H1527.38V78.0484C1527.38 78.161 1527.43 78.269 1527.51 78.3487C1527.59 78.4283 1527.69 78.4731 1527.81 78.4731C1527.92 78.4731 1528.03 78.4283 1528.11 78.3487C1528.19 78.269 1528.23 78.161 1528.23 78.0484V75.9251H1530.35C1530.47 75.9251 1530.58 75.8803 1530.65 75.8007C1530.73 75.721 1530.78 75.613 1530.78 75.5004C1530.78 75.3878 1530.73 75.2797 1530.65 75.2001C1530.58 75.1205 1530.47 75.0757 1530.35 75.0757H1528.23Z" fill="#94A3B8"/>
<path d="M1579.59 60.4756L1582.4 57.6601C1582.48 57.5866 1582.54 57.4988 1582.58 57.4016C1582.62 57.3045 1582.64 57.2 1582.64 57.0943C1582.64 56.9885 1582.62 56.8837 1582.58 56.7858C1582.54 56.688 1582.49 56.5991 1582.41 56.5243C1582.34 56.4495 1582.25 56.3904 1582.15 56.3504C1582.05 56.3103 1581.95 56.2902 1581.84 56.2911C1581.73 56.292 1581.63 56.314 1581.53 56.3557C1581.44 56.3975 1581.35 56.4581 1581.27 56.5342L1578.46 59.3489L1575.64 56.5342C1575.57 56.4581 1575.48 56.3975 1575.39 56.3557C1575.29 56.314 1575.18 56.292 1575.08 56.2911C1574.97 56.2902 1574.87 56.3103 1574.77 56.3504C1574.67 56.3904 1574.58 56.4495 1574.51 56.5243C1574.43 56.5991 1574.37 56.688 1574.33 56.7858C1574.29 56.8837 1574.27 56.9885 1574.28 57.0943C1574.28 57.2 1574.3 57.3045 1574.34 57.4016C1574.38 57.4988 1574.44 57.5866 1574.52 57.6601L1577.33 60.4748L1574.52 63.2904C1574.44 63.3639 1574.38 63.4517 1574.34 63.5489C1574.3 63.646 1574.28 63.7505 1574.28 63.8562C1574.27 63.962 1574.29 64.0668 1574.33 64.1647C1574.37 64.2625 1574.43 64.3514 1574.51 64.4262C1574.58 64.501 1574.67 64.5601 1574.77 64.6001C1574.87 64.6401 1574.97 64.6603 1575.08 64.6594C1575.18 64.6585 1575.29 64.6365 1575.39 64.5948C1575.48 64.553 1575.57 64.4924 1575.64 64.4163L1578.46 61.6016L1581.27 64.4163C1581.35 64.4924 1581.44 64.553 1581.53 64.5948C1581.63 64.6365 1581.73 64.6585 1581.84 64.6594C1581.95 64.6603 1582.05 64.6401 1582.15 64.6001C1582.25 64.5601 1582.34 64.501 1582.41 64.4262C1582.49 64.3514 1582.54 64.2625 1582.58 64.1647C1582.62 64.0668 1582.64 63.962 1582.64 63.8562C1582.64 63.7505 1582.62 63.646 1582.58 63.5489C1582.54 63.4517 1582.48 63.3639 1582.4 63.2904L1579.59 60.4748V60.4756Z" fill="#94A3B8"/>
<path d="M1595.66 232.054L1597.16 230.552C1597.2 230.513 1597.23 230.466 1597.25 230.414C1597.28 230.362 1597.29 230.307 1597.29 230.25C1597.29 230.194 1597.28 230.138 1597.26 230.086C1597.23 230.033 1597.2 229.986 1597.16 229.946C1597.12 229.906 1597.08 229.875 1597.02 229.853C1596.97 229.832 1596.92 229.821 1596.86 229.822C1596.8 229.822 1596.75 229.834 1596.7 229.856C1596.64 229.879 1596.6 229.911 1596.56 229.951L1595.06 231.453L1593.55 229.951C1593.52 229.911 1593.47 229.879 1593.42 229.856C1593.36 229.834 1593.31 229.822 1593.25 229.822C1593.2 229.821 1593.14 229.832 1593.09 229.853C1593.04 229.875 1592.99 229.906 1592.95 229.946C1592.91 229.986 1592.88 230.033 1592.86 230.086C1592.83 230.138 1592.82 230.194 1592.82 230.25C1592.82 230.307 1592.84 230.362 1592.86 230.414C1592.88 230.466 1592.91 230.513 1592.95 230.552L1594.46 232.053L1592.95 233.555C1592.91 233.594 1592.88 233.641 1592.86 233.693C1592.84 233.744 1592.82 233.8 1592.82 233.857C1592.82 233.913 1592.83 233.969 1592.86 234.021C1592.88 234.073 1592.91 234.121 1592.95 234.161C1592.99 234.2 1593.04 234.232 1593.09 234.253C1593.14 234.275 1593.2 234.285 1593.25 234.285C1593.31 234.284 1593.36 234.273 1593.42 234.25C1593.47 234.228 1593.52 234.196 1593.55 234.155L1595.06 232.654L1596.56 234.155C1596.6 234.196 1596.64 234.228 1596.7 234.25C1596.75 234.273 1596.8 234.284 1596.86 234.285C1596.92 234.285 1596.97 234.275 1597.02 234.253C1597.08 234.232 1597.12 234.2 1597.16 234.161C1597.2 234.121 1597.23 234.073 1597.26 234.021C1597.28 233.969 1597.29 233.913 1597.29 233.857C1597.29 233.8 1597.28 233.744 1597.25 233.693C1597.23 233.641 1597.2 233.594 1597.16 233.555L1595.66 232.053V232.054Z" fill="#94A3B8"/>
<path d="M349.522 182H348.028V175.953H341.261V182H339.767V169.15H341.261V174.617H348.028V169.15H349.522V182ZM361.15 177.175C361.15 178.745 360.755 179.973 359.964 180.857C359.173 181.736 358.08 182.176 356.686 182.176C355.824 182.176 355.06 181.974 354.392 181.569C353.724 181.165 353.208 180.585 352.845 179.829C352.481 179.073 352.3 178.188 352.3 177.175C352.3 175.604 352.692 174.383 353.478 173.51C354.263 172.631 355.353 172.191 356.747 172.191C358.095 172.191 359.164 172.64 359.955 173.536C360.752 174.433 361.15 175.646 361.15 177.175ZM353.812 177.175C353.812 178.405 354.058 179.343 354.55 179.987C355.042 180.632 355.766 180.954 356.721 180.954C357.676 180.954 358.399 180.635 358.892 179.996C359.39 179.352 359.639 178.411 359.639 177.175C359.639 175.95 359.39 175.021 358.892 174.389C358.399 173.75 357.67 173.431 356.703 173.431C355.748 173.431 355.027 173.744 354.541 174.371C354.055 174.998 353.812 175.933 353.812 177.175ZM375.995 182V175.733C375.995 174.966 375.831 174.392 375.503 174.011C375.175 173.624 374.665 173.431 373.974 173.431C373.065 173.431 372.395 173.691 371.961 174.213C371.527 174.734 371.311 175.537 371.311 176.621V182H369.852V175.733C369.852 174.966 369.688 174.392 369.359 174.011C369.031 173.624 368.519 173.431 367.821 173.431C366.907 173.431 366.236 173.706 365.809 174.257C365.387 174.802 365.176 175.698 365.176 176.946V182H363.717V172.367H364.903L365.141 173.686H365.211C365.486 173.217 365.873 172.851 366.371 172.587C366.875 172.323 367.438 172.191 368.059 172.191C369.564 172.191 370.549 172.736 371.012 173.826H371.082C371.369 173.322 371.785 172.924 372.33 172.631C372.875 172.338 373.496 172.191 374.193 172.191C375.283 172.191 376.098 172.473 376.637 173.035C377.182 173.592 377.454 174.485 377.454 175.716V182H375.995ZM384.538 182.176C383.114 182.176 381.989 181.742 381.163 180.875C380.343 180.008 379.933 178.804 379.933 177.263C379.933 175.71 380.313 174.477 381.075 173.562C381.843 172.648 382.871 172.191 384.16 172.191C385.367 172.191 386.322 172.59 387.025 173.387C387.729 174.178 388.08 175.224 388.08 176.524V177.447H381.444C381.474 178.578 381.758 179.437 382.297 180.022C382.842 180.608 383.606 180.901 384.591 180.901C385.628 180.901 386.653 180.685 387.667 180.251V181.552C387.151 181.774 386.662 181.933 386.199 182.026C385.742 182.126 385.188 182.176 384.538 182.176ZM384.143 173.413C383.369 173.413 382.751 173.665 382.288 174.169C381.831 174.673 381.562 175.37 381.479 176.261H386.516C386.516 175.341 386.311 174.638 385.9 174.151C385.49 173.659 384.904 173.413 384.143 173.413Z" fill="#475569"/>
<path d="M394 173.5L398 177.5L394 181.5" stroke="#475569"/>
<path d="M415.018 178.581C415.018 179.712 414.607 180.594 413.787 181.227C412.967 181.859 411.854 182.176 410.447 182.176C408.924 182.176 407.752 181.979 406.932 181.587V180.146C407.459 180.368 408.033 180.544 408.654 180.673C409.275 180.802 409.891 180.866 410.5 180.866C411.496 180.866 412.246 180.679 412.75 180.304C413.254 179.923 413.506 179.396 413.506 178.722C413.506 178.276 413.415 177.913 413.233 177.632C413.058 177.345 412.759 177.081 412.337 176.841C411.921 176.601 411.285 176.328 410.43 176.023C409.234 175.596 408.379 175.089 407.863 174.503C407.354 173.917 407.099 173.152 407.099 172.209C407.099 171.219 407.471 170.431 408.215 169.845C408.959 169.259 409.943 168.966 411.168 168.966C412.445 168.966 413.62 169.2 414.692 169.669L414.227 170.97C413.166 170.524 412.135 170.302 411.133 170.302C410.342 170.302 409.724 170.472 409.278 170.812C408.833 171.151 408.61 171.623 408.61 172.227C408.61 172.672 408.692 173.038 408.856 173.325C409.021 173.606 409.296 173.867 409.683 174.107C410.075 174.342 410.673 174.603 411.476 174.89C412.823 175.37 413.749 175.886 414.253 176.437C414.763 176.987 415.018 177.702 415.018 178.581ZM421.495 182.176C420.071 182.176 418.946 181.742 418.12 180.875C417.3 180.008 416.89 178.804 416.89 177.263C416.89 175.71 417.271 174.477 418.032 173.562C418.8 172.648 419.828 172.191 421.117 172.191C422.324 172.191 423.279 172.59 423.982 173.387C424.686 174.178 425.037 175.224 425.037 176.524V177.447H418.401C418.431 178.578 418.715 179.437 419.254 180.022C419.799 180.608 420.563 180.901 421.548 180.901C422.585 180.901 423.61 180.685 424.624 180.251V181.552C424.108 181.774 423.619 181.933 423.156 182.026C422.699 182.126 422.146 182.176 421.495 182.176ZM421.1 173.413C420.326 173.413 419.708 173.665 419.245 174.169C418.788 174.673 418.519 175.37 418.437 176.261H423.473C423.473 175.341 423.268 174.638 422.857 174.151C422.447 173.659 421.861 173.413 421.1 173.413ZM431.928 172.191C432.355 172.191 432.739 172.227 433.079 172.297L432.877 173.65C432.479 173.562 432.127 173.519 431.822 173.519C431.043 173.519 430.375 173.835 429.818 174.468C429.268 175.101 428.992 175.889 428.992 176.832V182H427.533V172.367H428.737L428.904 174.151H428.975C429.332 173.524 429.763 173.041 430.267 172.701C430.771 172.361 431.324 172.191 431.928 172.191ZM436.99 182L433.334 172.367H434.898L436.973 178.08C437.441 179.416 437.717 180.283 437.799 180.682H437.869C437.934 180.371 438.136 179.729 438.476 178.757C438.821 177.778 439.592 175.648 440.787 172.367H442.352L438.695 182H436.99ZM445.357 182H443.898V172.367H445.357V182ZM443.775 169.757C443.775 169.423 443.857 169.18 444.021 169.027C444.186 168.869 444.391 168.79 444.637 168.79C444.871 168.79 445.073 168.869 445.243 169.027C445.413 169.186 445.498 169.429 445.498 169.757C445.498 170.085 445.413 170.331 445.243 170.495C445.073 170.653 444.871 170.732 444.637 170.732C444.391 170.732 444.186 170.653 444.021 170.495C443.857 170.331 443.775 170.085 443.775 169.757ZM452.301 182.176C450.906 182.176 449.825 181.748 449.058 180.893C448.296 180.031 447.915 178.815 447.915 177.245C447.915 175.634 448.302 174.389 449.075 173.51C449.854 172.631 450.962 172.191 452.397 172.191C452.86 172.191 453.323 172.241 453.786 172.341C454.249 172.44 454.612 172.558 454.876 172.692L454.428 173.932C454.105 173.803 453.754 173.697 453.373 173.615C452.992 173.527 452.655 173.483 452.362 173.483C450.405 173.483 449.427 174.731 449.427 177.228C449.427 178.411 449.664 179.319 450.139 179.952C450.619 180.585 451.328 180.901 452.266 180.901C453.068 180.901 453.892 180.729 454.735 180.383V181.675C454.091 182.009 453.279 182.176 452.301 182.176ZM461.099 182.176C459.675 182.176 458.55 181.742 457.724 180.875C456.903 180.008 456.493 178.804 456.493 177.263C456.493 175.71 456.874 174.477 457.636 173.562C458.403 172.648 459.432 172.191 460.721 172.191C461.928 172.191 462.883 172.59 463.586 173.387C464.289 174.178 464.641 175.224 464.641 176.524V177.447H458.005C458.034 178.578 458.318 179.437 458.857 180.022C459.402 180.608 460.167 180.901 461.151 180.901C462.188 180.901 463.214 180.685 464.228 180.251V181.552C463.712 181.774 463.223 181.933 462.76 182.026C462.303 182.126 461.749 182.176 461.099 182.176ZM460.703 173.413C459.93 173.413 459.312 173.665 458.849 174.169C458.392 174.673 458.122 175.37 458.04 176.261H463.076C463.076 175.341 462.871 174.638 462.461 174.151C462.051 173.659 461.465 173.413 460.703 173.413ZM473.351 179.372C473.351 180.269 473.017 180.96 472.349 181.446C471.681 181.933 470.743 182.176 469.536 182.176C468.259 182.176 467.263 181.974 466.548 181.569V180.216C467.011 180.45 467.506 180.635 468.033 180.77C468.566 180.904 469.079 180.972 469.571 180.972C470.333 180.972 470.919 180.852 471.329 180.611C471.739 180.365 471.944 179.993 471.944 179.495C471.944 179.12 471.78 178.801 471.452 178.537C471.13 178.268 470.497 177.951 469.554 177.588C468.657 177.254 468.019 176.964 467.638 176.718C467.263 176.466 466.981 176.182 466.794 175.865C466.612 175.549 466.521 175.171 466.521 174.731C466.521 173.946 466.841 173.328 467.479 172.877C468.118 172.42 468.994 172.191 470.107 172.191C471.145 172.191 472.158 172.402 473.148 172.824L472.63 174.011C471.663 173.612 470.787 173.413 470.002 173.413C469.311 173.413 468.789 173.521 468.438 173.738C468.086 173.955 467.91 174.254 467.91 174.635C467.91 174.893 467.975 175.112 468.104 175.294C468.238 175.476 468.452 175.648 468.745 175.812C469.038 175.977 469.601 176.214 470.433 176.524C471.575 176.94 472.346 177.359 472.744 177.781C473.148 178.203 473.351 178.733 473.351 179.372Z" fill="#475569"/>
<path d="M480.865 173.5L484.865 177.5L480.865 181.5" stroke="#475569"/>
<path d="M494.632 182V169.15H496.126V180.646H501.795V182H494.632ZM512.078 177.175C512.078 178.745 511.683 179.973 510.892 180.857C510.101 181.736 509.008 182.176 507.613 182.176C506.752 182.176 505.987 181.974 505.319 181.569C504.651 181.165 504.136 180.585 503.772 179.829C503.409 179.073 503.228 178.188 503.228 177.175C503.228 175.604 503.62 174.383 504.405 173.51C505.19 172.631 506.28 172.191 507.675 172.191C509.022 172.191 510.092 172.64 510.883 173.536C511.68 174.433 512.078 175.646 512.078 177.175ZM504.739 177.175C504.739 178.405 504.985 179.343 505.478 179.987C505.97 180.632 506.693 180.954 507.648 180.954C508.604 180.954 509.327 180.635 509.819 179.996C510.317 179.352 510.566 178.411 510.566 177.175C510.566 175.95 510.317 175.021 509.819 174.389C509.327 173.75 508.598 173.431 507.631 173.431C506.676 173.431 505.955 173.744 505.469 174.371C504.982 174.998 504.739 175.933 504.739 177.175ZM522.511 182L520.744 176.349C520.633 176.003 520.425 175.218 520.12 173.993H520.05C519.815 175.019 519.61 175.81 519.435 176.366L517.615 182H515.928L513.3 172.367H514.829C515.45 174.787 515.922 176.63 516.244 177.896C516.572 179.161 516.76 180.014 516.807 180.453H516.877C516.941 180.119 517.044 179.688 517.185 179.161C517.331 178.628 517.457 178.206 517.562 177.896L519.329 172.367H520.911L522.634 177.896C522.962 178.903 523.185 179.75 523.302 180.436H523.372C523.396 180.225 523.457 179.899 523.557 179.46C523.662 179.021 524.274 176.656 525.394 172.367H526.905L524.242 182H522.511ZM535.439 182L531.783 172.367H533.348L535.422 178.08C535.891 179.416 536.166 180.283 536.248 180.682H536.318C536.383 180.371 536.585 179.729 536.925 178.757C537.271 177.778 538.041 175.648 539.236 172.367H540.801L537.145 182H535.439ZM550.662 177.175C550.662 178.745 550.267 179.973 549.476 180.857C548.685 181.736 547.592 182.176 546.197 182.176C545.336 182.176 544.571 181.974 543.903 181.569C543.235 181.165 542.72 180.585 542.356 179.829C541.993 179.073 541.812 178.188 541.812 177.175C541.812 175.604 542.204 174.383 542.989 173.51C543.774 172.631 544.864 172.191 546.259 172.191C547.606 172.191 548.676 172.64 549.467 173.536C550.264 174.433 550.662 175.646 550.662 177.175ZM543.323 177.175C543.323 178.405 543.569 179.343 544.062 179.987C544.554 180.632 545.277 180.954 546.232 180.954C547.188 180.954 547.911 180.635 548.403 179.996C548.901 179.352 549.15 178.411 549.15 177.175C549.15 175.95 548.901 175.021 548.403 174.389C547.911 173.75 547.182 173.431 546.215 173.431C545.26 173.431 544.539 173.744 544.053 174.371C543.566 174.998 543.323 175.933 543.323 177.175ZM554.688 182H553.229V168.324H554.688V182ZM560.893 180.972C561.15 180.972 561.399 180.954 561.64 180.919C561.88 180.878 562.07 180.837 562.211 180.796V181.912C562.053 181.988 561.818 182.05 561.508 182.097C561.203 182.149 560.928 182.176 560.682 182.176C558.818 182.176 557.887 181.194 557.887 179.231V173.501H556.507V172.798L557.887 172.191L558.502 170.135H559.346V172.367H562.141V173.501H559.346V179.17C559.346 179.75 559.483 180.195 559.759 180.506C560.034 180.816 560.412 180.972 560.893 180.972ZM570.068 182L569.778 180.629H569.708C569.228 181.232 568.747 181.643 568.267 181.859C567.792 182.07 567.197 182.176 566.482 182.176C565.527 182.176 564.777 181.93 564.232 181.438C563.693 180.945 563.424 180.245 563.424 179.337C563.424 177.392 564.979 176.372 568.091 176.278L569.726 176.226V175.628C569.726 174.872 569.562 174.315 569.233 173.958C568.911 173.595 568.393 173.413 567.678 173.413C566.875 173.413 565.967 173.659 564.953 174.151L564.505 173.035C564.979 172.777 565.498 172.575 566.061 172.429C566.629 172.282 567.197 172.209 567.766 172.209C568.914 172.209 569.764 172.464 570.314 172.974C570.871 173.483 571.149 174.301 571.149 175.426V182H570.068ZM566.772 180.972C567.681 180.972 568.393 180.723 568.908 180.225C569.43 179.727 569.69 179.029 569.69 178.133V177.263L568.231 177.324C567.071 177.365 566.233 177.547 565.718 177.869C565.208 178.186 564.953 178.681 564.953 179.354C564.953 179.882 565.111 180.283 565.428 180.559C565.75 180.834 566.198 180.972 566.772 180.972ZM582.048 172.367V173.29L580.264 173.501C580.428 173.706 580.574 173.976 580.703 174.31C580.832 174.638 580.896 175.01 580.896 175.426C580.896 176.369 580.574 177.122 579.93 177.685C579.285 178.247 578.4 178.528 577.275 178.528C576.988 178.528 576.719 178.505 576.467 178.458C575.846 178.786 575.535 179.199 575.535 179.697C575.535 179.961 575.644 180.157 575.86 180.286C576.077 180.409 576.449 180.471 576.977 180.471H578.682C579.725 180.471 580.524 180.69 581.081 181.13C581.644 181.569 581.925 182.208 581.925 183.046C581.925 184.112 581.497 184.924 580.642 185.48C579.786 186.043 578.538 186.324 576.897 186.324C575.638 186.324 574.665 186.09 573.979 185.621C573.3 185.152 572.96 184.49 572.96 183.635C572.96 183.049 573.147 182.542 573.522 182.114C573.897 181.687 574.425 181.396 575.104 181.244C574.858 181.133 574.65 180.96 574.48 180.726C574.316 180.491 574.234 180.219 574.234 179.908C574.234 179.557 574.328 179.249 574.516 178.985C574.703 178.722 574.999 178.467 575.403 178.221C574.905 178.016 574.498 177.667 574.182 177.175C573.871 176.683 573.716 176.12 573.716 175.487C573.716 174.433 574.032 173.621 574.665 173.053C575.298 172.479 576.194 172.191 577.354 172.191C577.858 172.191 578.312 172.25 578.717 172.367H582.048ZM574.366 183.617C574.366 184.139 574.586 184.534 575.025 184.804C575.465 185.073 576.095 185.208 576.915 185.208C578.14 185.208 579.045 185.023 579.631 184.654C580.223 184.291 580.519 183.796 580.519 183.169C580.519 182.647 580.357 182.284 580.035 182.079C579.713 181.88 579.106 181.78 578.216 181.78H576.467C575.805 181.78 575.289 181.938 574.92 182.255C574.551 182.571 574.366 183.025 574.366 183.617ZM575.157 175.452C575.157 176.126 575.348 176.636 575.729 176.981C576.109 177.327 576.64 177.5 577.319 177.5C578.743 177.5 579.455 176.809 579.455 175.426C579.455 173.979 578.734 173.255 577.293 173.255C576.607 173.255 576.08 173.439 575.711 173.809C575.342 174.178 575.157 174.726 575.157 175.452ZM588.095 182.176C586.671 182.176 585.546 181.742 584.72 180.875C583.899 180.008 583.489 178.804 583.489 177.263C583.489 175.71 583.87 174.477 584.632 173.562C585.399 172.648 586.428 172.191 587.717 172.191C588.924 172.191 589.879 172.59 590.582 173.387C591.285 174.178 591.637 175.224 591.637 176.524V177.447H585.001C585.03 178.578 585.314 179.437 585.854 180.022C586.398 180.608 587.163 180.901 588.147 180.901C589.185 180.901 590.21 180.685 591.224 180.251V181.552C590.708 181.774 590.219 181.933 589.756 182.026C589.299 182.126 588.745 182.176 588.095 182.176ZM587.699 173.413C586.926 173.413 586.308 173.665 585.845 174.169C585.388 174.673 585.118 175.37 585.036 176.261H590.072C590.072 175.341 589.867 174.638 589.457 174.151C589.047 173.659 588.461 173.413 587.699 173.413Z" fill="#475569"/>
<path d="M603.37 173.5L607.37 177.5L603.37 181.5" stroke="#475569"/>
<path d="M622.823 182L618.464 170.609H618.394C618.476 171.512 618.517 172.584 618.517 173.826V182H617.137V169.15H619.387L623.456 179.75H623.526L627.631 169.15H629.863V182H628.369V173.721C628.369 172.771 628.41 171.74 628.492 170.627H628.422L624.027 182H622.823ZM638.898 170.302C637.486 170.302 636.37 170.773 635.55 171.717C634.735 172.654 634.328 173.94 634.328 175.575C634.328 177.257 634.721 178.558 635.506 179.478C636.297 180.392 637.422 180.849 638.881 180.849C639.777 180.849 640.8 180.688 641.948 180.365V181.675C641.058 182.009 639.959 182.176 638.652 182.176C636.76 182.176 635.298 181.602 634.267 180.453C633.241 179.305 632.729 177.673 632.729 175.558C632.729 174.233 632.975 173.073 633.467 172.077C633.965 171.081 634.68 170.313 635.611 169.774C636.549 169.235 637.65 168.966 638.916 168.966C640.264 168.966 641.441 169.212 642.449 169.704L641.816 170.987C640.844 170.53 639.871 170.302 638.898 170.302ZM650.254 170.302C648.842 170.302 647.726 170.773 646.905 171.717C646.091 172.654 645.684 173.94 645.684 175.575C645.684 177.257 646.076 178.558 646.861 179.478C647.652 180.392 648.777 180.849 650.236 180.849C651.133 180.849 652.155 180.688 653.304 180.365V181.675C652.413 182.009 651.314 182.176 650.008 182.176C648.115 182.176 646.653 181.602 645.622 180.453C644.597 179.305 644.084 177.673 644.084 175.558C644.084 174.233 644.33 173.073 644.822 172.077C645.32 171.081 646.035 170.313 646.967 169.774C647.904 169.235 649.006 168.966 650.271 168.966C651.619 168.966 652.797 169.212 653.805 169.704L653.172 170.987C652.199 170.53 651.227 170.302 650.254 170.302ZM656.107 169.15H659.737C661.442 169.15 662.676 169.405 663.438 169.915C664.199 170.425 664.58 171.23 664.58 172.332C664.58 173.094 664.366 173.724 663.938 174.222C663.517 174.714 662.898 175.033 662.084 175.18V175.268C664.035 175.602 665.011 176.627 665.011 178.344C665.011 179.492 664.621 180.389 663.842 181.033C663.068 181.678 661.984 182 660.59 182H656.107V169.15ZM657.602 174.652H660.062C661.117 174.652 661.876 174.488 662.339 174.16C662.802 173.826 663.033 173.267 663.033 172.481C663.033 171.761 662.775 171.242 662.26 170.926C661.744 170.604 660.924 170.442 659.799 170.442H657.602V174.652ZM657.602 175.918V180.726H660.282C661.319 180.726 662.099 180.526 662.62 180.128C663.147 179.724 663.411 179.094 663.411 178.238C663.411 177.441 663.142 176.855 662.603 176.48C662.069 176.105 661.255 175.918 660.159 175.918H657.602Z" fill="#475569"/>
<path d="M675.625 173.5L679.625 177.5L675.625 181.5" stroke="#475569"/>
<path d="M695.078 182L690.719 170.609H690.648C690.73 171.512 690.771 172.584 690.771 173.826V182H689.392V169.15H691.642L695.711 179.75H695.781L699.886 169.15H702.118V182H700.624V173.721C700.624 172.771 700.665 171.74 700.747 170.627H700.677L696.282 182H695.078ZM711.153 170.302C709.741 170.302 708.625 170.773 707.805 171.717C706.99 172.654 706.583 173.94 706.583 175.575C706.583 177.257 706.976 178.558 707.761 179.478C708.552 180.392 709.677 180.849 711.136 180.849C712.032 180.849 713.055 180.688 714.203 180.365V181.675C713.312 182.009 712.214 182.176 710.907 182.176C709.015 182.176 707.553 181.602 706.521 180.453C705.496 179.305 704.983 177.673 704.983 175.558C704.983 174.233 705.229 173.073 705.722 172.077C706.22 171.081 706.935 170.313 707.866 169.774C708.804 169.235 709.905 168.966 711.171 168.966C712.519 168.966 713.696 169.212 714.704 169.704L714.071 170.987C713.099 170.53 712.126 170.302 711.153 170.302ZM722.509 170.302C721.097 170.302 719.98 170.773 719.16 171.717C718.346 172.654 717.938 173.94 717.938 175.575C717.938 177.257 718.331 178.558 719.116 179.478C719.907 180.392 721.032 180.849 722.491 180.849C723.388 180.849 724.41 180.688 725.559 180.365V181.675C724.668 182.009 723.569 182.176 722.263 182.176C720.37 182.176 718.908 181.602 717.877 180.453C716.852 179.305 716.339 177.673 716.339 175.558C716.339 174.233 716.585 173.073 717.077 172.077C717.575 171.081 718.29 170.313 719.222 169.774C720.159 169.235 721.261 168.966 722.526 168.966C723.874 168.966 725.052 169.212 726.06 169.704L725.427 170.987C724.454 170.53 723.481 170.302 722.509 170.302ZM728.362 169.15H731.992C733.697 169.15 734.931 169.405 735.692 169.915C736.454 170.425 736.835 171.23 736.835 172.332C736.835 173.094 736.621 173.724 736.193 174.222C735.771 174.714 735.153 175.033 734.339 175.18V175.268C736.29 175.602 737.266 176.627 737.266 178.344C737.266 179.492 736.876 180.389 736.097 181.033C735.323 181.678 734.239 182 732.845 182H728.362V169.15ZM729.856 174.652H732.317C733.372 174.652 734.131 174.488 734.594 174.16C735.057 173.826 735.288 173.267 735.288 172.481C735.288 171.761 735.03 171.242 734.515 170.926C733.999 170.604 733.179 170.442 732.054 170.442H729.856V174.652ZM729.856 175.918V180.726H732.537C733.574 180.726 734.354 180.526 734.875 180.128C735.402 179.724 735.666 179.094 735.666 178.238C735.666 177.441 735.396 176.855 734.857 176.48C734.324 176.105 733.51 175.918 732.414 175.918H729.856Z" fill="black"/>
<path d="M381.732 99.6248V142H371.409V116.587L361.932 142H353.602L344.065 116.527V142H333.743V99.6248H345.936L357.828 128.961L369.598 99.6248H381.732ZM387.404 120.752C387.404 116.567 388.309 112.844 390.12 109.585C391.931 106.285 394.446 103.73 397.666 101.919C400.925 100.068 404.607 99.1419 408.712 99.1419C413.742 99.1419 418.048 100.47 421.63 103.126C425.211 105.782 427.606 109.404 428.813 113.991H417.465C416.62 112.221 415.412 110.873 413.843 109.947C412.314 109.021 410.563 108.559 408.591 108.559C405.412 108.559 402.837 109.665 400.865 111.879C398.893 114.092 397.907 117.05 397.907 120.752C397.907 124.454 398.893 127.412 400.865 129.625C402.837 131.839 405.412 132.945 408.591 132.945C410.563 132.945 412.314 132.483 413.843 131.557C415.412 130.632 416.62 129.283 417.465 127.513H428.813C427.606 132.1 425.211 135.722 421.63 138.378C418.048 140.994 413.742 142.302 408.712 142.302C404.607 142.302 400.925 141.396 397.666 139.585C394.446 137.734 391.931 135.179 390.12 131.919C388.309 128.66 387.404 124.937 387.404 120.752ZM433.384 120.752C433.384 116.567 434.289 112.844 436.1 109.585C437.911 106.285 440.426 103.73 443.646 101.919C446.905 100.068 450.587 99.1419 454.692 99.1419C459.722 99.1419 464.028 100.47 467.61 103.126C471.191 105.782 473.586 109.404 474.793 113.991H463.445C462.6 112.221 461.392 110.873 459.823 109.947C458.294 109.021 456.543 108.559 454.571 108.559C451.392 108.559 448.817 109.665 446.845 111.879C444.873 114.092 443.887 117.05 443.887 120.752C443.887 124.454 444.873 127.412 446.845 129.625C448.817 131.839 451.392 132.945 454.571 132.945C456.543 132.945 458.294 132.483 459.823 131.557C461.392 130.632 462.6 129.283 463.445 127.513H474.793C473.586 132.1 471.191 135.722 467.61 138.378C464.028 140.994 459.722 142.302 454.692 142.302C450.587 142.302 446.905 141.396 443.646 139.585C440.426 137.734 437.911 135.179 436.1 131.919C434.289 128.66 433.384 124.937 433.384 120.752ZM506.769 120.269C509.224 120.792 511.195 122.02 512.684 123.951C514.173 125.843 514.918 128.016 514.918 130.471C514.918 134.012 513.67 136.829 511.175 138.921C508.721 140.974 505.28 142 500.853 142H481.114V99.6248H500.189C504.495 99.6248 507.855 100.611 510.27 102.583C512.725 104.555 513.952 107.231 513.952 110.611C513.952 113.106 513.288 115.178 511.96 116.828C510.672 118.478 508.942 119.625 506.769 120.269ZM491.436 116.768H498.197C499.887 116.768 501.175 116.406 502.06 115.682C502.986 114.917 503.449 113.81 503.449 112.362C503.449 110.913 502.986 109.806 502.06 109.042C501.175 108.277 499.887 107.895 498.197 107.895H491.436V116.768ZM499.042 133.67C500.773 133.67 502.101 133.288 503.026 132.523C503.992 131.718 504.475 130.571 504.475 129.082C504.475 127.593 503.972 126.426 502.966 125.581C502 124.736 500.652 124.313 498.922 124.313H491.436V133.67H499.042Z" fill="#E12C21"/>
</g>
<defs>
<clipPath id="clip0_86_2056">
<rect width="1602" height="270" fill="white"/>
</clipPath>
<clipPath id="clip1_86_2056">
<rect width="6" height="6" fill="white" transform="translate(1491.98 208)"/>
</clipPath>
<clipPath id="clip2_86_2056">
<rect width="5.09605" height="5.09605" fill="white" transform="translate(1502.43 144.401)"/>
</clipPath>
<clipPath id="clip3_86_2056">
<rect width="8.91808" height="8.91808" fill="white" transform="translate(1543 182)"/>
</clipPath>
<clipPath id="clip4_86_2056">
<rect width="7.64407" height="7.64407" fill="white" transform="translate(1405.33 252.418)"/>
</clipPath>
</defs>
</svg>
