<svg width="35" height="28" viewBox="0 0 35 28" fill="none" xmlns="http://www.w3.org/2000/svg">
<path fill-rule="evenodd" clip-rule="evenodd" d="M6.94404 7.57168e-07H28.056C28.8235 -1.67428e-05 29.4859 -3.44054e-05 30.0342 0.0373631C30.6113 0.0767556 31.1887 0.163381 31.7592 0.399631C33.0454 0.932471 34.0676 1.95452 34.6003 3.24091C34.8366 3.81129 34.9232 4.38863 34.9627 4.96584C35 5.51404 35 6.17638 35 6.94402V21.056C35 21.8235 35 22.4859 34.9627 23.0342C34.9232 23.6113 34.8366 24.1887 34.6003 24.7592C34.0676 26.0454 33.0454 27.0676 31.7592 27.6003C31.1887 27.8366 30.6113 27.9232 30.0342 27.9627C29.4859 28 28.8235 28 28.056 28H6.94402C6.17638 28 5.51404 28 4.96584 27.9627C4.38863 27.9232 3.81129 27.8366 3.24091 27.6003C1.95452 27.0676 0.932471 26.0454 0.399631 24.7592C0.163381 24.1887 0.0767556 23.6113 0.0373631 23.0342C-3.44054e-05 22.4859 -1.67428e-05 21.8235 7.57168e-07 21.056V6.94404C-1.67428e-05 6.1764 -3.44054e-05 5.51404 0.0373631 4.96584C0.0767556 4.38863 0.163381 3.81129 0.399631 3.24091C0.932471 1.95452 1.95452 0.932471 3.24091 0.399631C3.81129 0.163381 4.38863 0.0767556 4.96584 0.0373631C5.51404 -3.44054e-05 6.1764 -1.67428e-05 6.94404 7.57168e-07ZM4.05554 3.9861C4.692 3.25875 5.79758 3.18504 6.52495 3.82148L16.3476 12.4163C17.0074 12.9936 17.9926 12.9936 18.6524 12.4163L28.4751 3.82148C29.2024 3.18504 30.3081 3.25875 30.9444 3.9861C31.5809 4.71347 31.5072 5.81905 30.7799 6.45549L20.9571 15.0503C18.9777 16.7823 16.0223 16.7823 14.0429 15.0503L4.22018 6.45549C3.49281 5.81905 3.4191 4.71347 4.05554 3.9861Z" fill="white"/>
</svg>
