<svg width="38" height="38" viewBox="0 0 38 38" fill="none" xmlns="http://www.w3.org/2000/svg">
<g clip-path="url(#clip0_94_3833)">
<path fill-rule="evenodd" clip-rule="evenodd" d="M19 10.6875C17.0323 10.6875 15.4375 12.2823 15.4375 14.25C15.4375 16.2177 17.0323 17.8125 19 17.8125C20.9677 17.8125 22.5625 16.2177 22.5625 14.25C22.5625 12.2823 20.9677 10.6875 19 10.6875ZM19 20.1875C15.7213 20.1875 13.0625 17.5299 13.0625 14.25C13.0625 10.9701 15.7213 8.3125 19 8.3125C22.2787 8.3125 24.9375 10.9701 24.9375 14.25C24.9375 17.5299 22.2787 20.1875 19 20.1875ZM19 0C11.1304 0 4.75 6.38044 4.75 14.25C4.75 20.2089 16.6309 38.0131 19 38C21.3323 38.0131 33.25 20.1281 33.25 14.25C33.25 6.38044 26.8696 0 19 0Z" fill="white"/>
</g>
<defs>
<clipPath id="clip0_94_3833">
<rect width="38" height="38" fill="white"/>
</clipPath>
</defs>
</svg>
