<svg width="19" height="19" viewBox="0 0 19 19" fill="none" xmlns="http://www.w3.org/2000/svg">
<path fill-rule="evenodd" clip-rule="evenodd" d="M5.58323 0.057C6.59656 0.0110833 6.91996 0 9.5 0C12.08 0 12.4034 0.0110833 13.4168 0.057C14.9613 0.127458 16.317 0.505875 17.4056 1.59442C18.4945 2.68335 18.8725 4.03948 18.943 5.58323C18.9889 6.59656 19 6.91996 19 9.5C19 12.08 18.9889 12.4034 18.943 13.4168C18.8725 14.9613 18.4941 16.317 17.4056 17.4056C16.3166 18.4945 14.9601 18.8725 13.4168 18.943C12.4034 18.9889 12.08 19 9.5 19C6.91996 19 6.59656 18.9889 5.58323 18.943C4.03869 18.8725 2.68296 18.4941 1.59442 17.4056C0.505479 16.3166 0.127458 14.9605 0.057 13.4168C0.0110833 12.4034 0 12.08 0 9.5C0 6.91996 0.0110833 6.59656 0.057 5.58323C0.127458 4.03869 0.505875 2.68296 1.59442 1.59442C2.68335 0.505479 4.03948 0.127458 5.58323 0.057ZM13.3391 1.76709C12.3373 1.72117 12.0368 1.71167 9.50033 1.71167C6.96383 1.71167 6.66339 1.72157 5.66154 1.76709C4.58052 1.81657 3.57708 2.03309 2.80521 2.80496C2.03333 3.57684 1.81681 4.58027 1.76733 5.66129C1.72141 6.66315 1.71191 6.96359 1.71191 9.50009C1.71191 12.0366 1.72181 12.337 1.76733 13.3389C1.81681 14.4199 2.03333 15.4233 2.80521 16.1952C3.57708 16.9671 4.58052 17.1836 5.66154 17.2331C6.663 17.279 6.96344 17.2885 9.50033 17.2885C12.0372 17.2885 12.3377 17.2786 13.3391 17.2331C14.4201 17.1836 15.4236 16.9671 16.1955 16.1952C16.9673 15.4233 17.1839 14.4199 17.2333 13.3389C17.2792 12.337 17.2887 12.0366 17.2887 9.50009C17.2887 6.96359 17.2789 6.66315 17.2333 5.66129C17.1839 4.58027 16.9673 3.57684 16.1955 2.80496C15.4236 2.03309 14.4201 1.81657 13.3391 1.76709Z" fill="white"/>
<path fill-rule="evenodd" clip-rule="evenodd" d="M5.18164 9.93188C5.18164 7.30867 7.30804 5.18188 9.93164 5.18188C12.5552 5.18188 14.6816 7.30828 14.6816 9.93188C14.6816 12.5555 12.5552 14.6819 9.93164 14.6819C7.30804 14.6819 5.18164 12.5551 5.18164 9.93188ZM6.84863 9.9318C6.84863 11.6346 8.22923 13.0152 9.93205 13.0152C11.6349 13.0152 13.0155 11.6346 13.0155 9.9318C13.0155 8.22899 11.6349 6.84839 9.93205 6.84839C8.22923 6.84839 6.84863 8.22899 6.84863 9.9318Z" fill="white"/>
<circle cx="14.2486" cy="4.75004" r="1.29545" fill="white"/>
</svg>
