<svg width="19" height="19" viewBox="0 0 19 19" fill="none" xmlns="http://www.w3.org/2000/svg">
<path fill-rule="evenodd" clip-rule="evenodd" d="M0.791667 0H18.2083C18.6438 0 19 0.35625 19 0.791667V18.2083C19 18.6438 18.6438 19 18.2083 19H0.791667C0.35625 19 0 18.6438 0 18.2083V0.791667C0 0.35625 0.35625 0 0.791667 0ZM2.81042 16.1896H5.62083V7.125H2.81042V16.1896ZM4.23542 5.89792C3.325 5.89792 2.6125 5.18542 2.6125 4.275C2.6125 3.36458 3.325 2.65208 4.23542 2.65208C5.14583 2.65208 5.85833 3.36458 5.85833 4.275C5.85833 5.14583 5.14583 5.89792 4.23542 5.89792ZM13.3794 16.1895H16.1503V11.202C16.1503 8.74787 15.6357 6.88745 12.7857 6.88745C11.4398 6.88745 10.4898 7.63953 10.1336 8.35203H10.094V7.12495H7.40234V16.1895H10.2128V11.7166C10.2128 10.5291 10.4503 9.3812 11.9148 9.3812C13.3794 9.3812 13.3794 10.727 13.3794 11.7958V16.1895Z" fill="white"/>
</svg>
