<svg width="32" height="32" viewBox="0 0 32 32" fill="none" xmlns="http://www.w3.org/2000/svg">
<path d="M22.3221 20.5293L21.5123 21.3817C21.5123 21.3817 19.5877 23.408 14.3344 17.8772C9.08109 12.3464 11.0057 10.3201 11.0057 10.3201L11.5156 9.78331C12.7717 8.46088 12.8901 6.33773 11.7942 4.78774L9.55245 1.61709C8.19604 -0.301333 5.57503 -0.554755 4.02035 1.08203L1.22995 4.01981C0.459072 4.8314 -0.0575142 5.88347 0.00513457 7.05056C0.165401 10.0364 1.44126 16.4605 8.56063 23.9559C16.1104 31.9044 23.1943 32.2203 26.0912 31.9344C27.0074 31.8439 27.8042 31.3499 28.4464 30.6738L30.9719 28.0149C32.6766 26.2203 32.1959 23.1435 30.0147 21.888L26.6183 19.933C25.1861 19.1086 23.4414 19.3508 22.3221 20.5293Z" fill="white"/>
</svg>
